<svg width="20" height="20" viewBox="0 0 20 20" fill="none" xmlns="http://www.w3.org/2000/svg">
<path d="M19.4444 12.381H16.6667V1.42857C16.6667 1.30228 16.6081 1.18116 16.504 1.09185C16.3998 1.00255 16.2585 0.952381 16.1111 0.952381H12.7778V0.47619C12.7778 0.349897 12.7192 0.228776 12.6151 0.139473C12.5109 0.0501699 12.3696 0 12.2222 0L4.44444 0C4.2971 0 4.15579 0.0501699 4.05161 0.139473C3.94742 0.228776 3.88889 0.349897 3.88889 0.47619V0.952381H0.555556C0.408213 0.952381 0.266905 1.00255 0.162718 1.09185C0.0585316 1.18116 0 1.30228 0 1.42857L0 19.5238C0 19.6501 0.0585316 19.7712 0.162718 19.8605C0.266905 19.9498 0.408213 20 0.555556 20H12.7778C14.6932 20 16.5302 19.3478 17.8847 18.1869C19.2391 17.0259 20 15.4513 20 13.8095V12.8571C20 12.7308 19.9415 12.6097 19.8373 12.5204C19.7331 12.4311 19.5918 12.381 19.4444 12.381ZM5 0.952381H11.6667V1.90476H5V0.952381ZM1.11111 19.0476V1.90476H3.88889V2.38095C3.88889 2.50725 3.94742 2.62837 4.05161 2.71767C4.15579 2.80697 4.2971 2.85714 4.44444 2.85714H12.2222C12.3696 2.85714 12.5109 2.80697 12.6151 2.71767C12.7192 2.62837 12.7778 2.50725 12.7778 2.38095V1.90476H15.5556V12.381H14.4444C14.2971 12.381 14.1558 12.4311 14.0516 12.5204C13.9474 12.6097 13.8889 12.7308 13.8889 12.8571C13.8876 13.1093 13.7698 13.3508 13.5611 13.5286C13.3529 13.706 13.0713 13.8055 12.7778 13.8055C12.4842 13.8055 12.2026 13.706 11.9944 13.5286C11.7858 13.3508 11.6679 13.1093 11.6667 12.8571C11.6667 12.7308 11.6081 12.6097 11.5039 12.5204C11.3998 12.4311 11.2585 12.381 11.1111 12.381H6.11111C5.96377 12.381 5.82246 12.4311 5.71827 12.5204C5.61409 12.6097 5.55556 12.7308 5.55556 12.8571V13.8095C5.55121 15.1904 6.08937 16.5323 7.08333 17.619C7.10046 17.6477 7.12093 17.6749 7.14444 17.7C7.65451 18.2305 8.26257 18.6857 8.94444 19.0476H1.11111ZM6.66667 13.8095V13.3333H10.6278C10.6808 13.5009 10.7612 13.6613 10.8667 13.8095L7.61667 16.5952C6.99769 15.7629 6.66816 14.7966 6.66667 13.8095ZM11.6667 14.4952C11.841 14.5822 12.0278 14.6494 12.2222 14.6952V19.0476C10.7329 18.922 9.34919 18.3324 8.33333 17.3905L11.6667 14.4952ZM13.3333 19.0476V14.6952C13.5278 14.6494 13.7145 14.5822 13.8889 14.4952L17.2222 17.3524L17.0667 17.4952C16.0752 18.3744 14.7526 18.9244 13.3333 19.0476ZM18.8889 13.8095C18.8895 14.8006 18.562 15.7716 17.9444 16.6095L14.6889 13.8095C14.7944 13.6613 14.8748 13.5009 14.9278 13.3333H18.8889V13.8095ZM3.88889 5.71429C3.88889 5.58799 3.94742 5.46687 4.05161 5.37757C4.15579 5.28827 4.2971 5.2381 4.44444 5.2381H12.2222C12.3696 5.2381 12.5109 5.28827 12.6151 5.37757C12.7192 5.46687 12.7778 5.58799 12.7778 5.71429C12.7778 5.84058 12.7192 5.9617 12.6151 6.051C12.5109 6.14031 12.3696 6.19048 12.2222 6.19048H4.44444C4.2971 6.19048 4.15579 6.14031 4.05161 6.051C3.94742 5.9617 3.88889 5.84058 3.88889 5.71429ZM3.88889 7.61905C3.88889 7.49275 3.94742 7.37163 4.05161 7.28233C4.15579 7.19303 4.2971 7.14286 4.44444 7.14286H12.2222C12.3696 7.14286 12.5109 7.19303 12.6151 7.28233C12.7192 7.37163 12.7778 7.49275 12.7778 7.61905C12.7778 7.74534 12.7192 7.86646 12.6151 7.95577C12.5109 8.04507 12.3696 8.09524 12.2222 8.09524H4.44444C4.2971 8.09524 4.15579 8.04507 4.05161 7.95577C3.94742 7.86646 3.88889 7.74534 3.88889 7.61905ZM12.2222 10H4.44444C4.2971 10 4.15579 9.94983 4.05161 9.86053C3.94742 9.77122 3.88889 9.6501 3.88889 9.52381C3.88889 9.39752 3.94742 9.27639 4.05161 9.18709C4.15579 9.09779 4.2971 9.04762 4.44444 9.04762H12.2222C12.3696 9.04762 12.5109 9.09779 12.6151 9.18709C12.7192 9.27639 12.7778 9.39752 12.7778 9.52381C12.7778 9.6501 12.7192 9.77122 12.6151 9.86053C12.5109 9.94983 12.3696 10 12.2222 10Z" fill="white"/>
</svg>
