<svg width="112" height="112" viewBox="0 0 112 112" fill="none" xmlns="http://www.w3.org/2000/svg">
<g id="LOGO 1">
<rect id="Rectangle 11" x="33" y="47" width="48" height="16" fill="white"/>
<g id="Clip path group">
<mask id="mask0_854_19889" style="mask-type:luminance" maskUnits="userSpaceOnUse" x="18" y="18" width="76" height="76">
<g id="clip-path">
<path id="Vector" d="M93.8891 18.1191H18.1133V93.895H93.8891V18.1191Z" fill="white"/>
</g>
</mask>
<g mask="url(#mask0_854_19889)">
<g id="Group">
<path id="Vector_2" d="M33.2658 27.2158V33.275H24.1758L22.6605 34.7903L24.1758 36.3057H36.2998V30.2398L33.2658 27.2158ZM33.2658 27.2158V33.275H24.1758L22.6605 34.7903L24.1758 36.3057H36.2998V30.2398L33.2658 27.2158ZM33.2658 27.2158V33.275H24.1758L22.6605 34.7903L24.1758 36.3057H36.2998V30.2398L33.2658 27.2158ZM18.1133 18.1191V36.3057H36.2998V18.1191H18.1133ZM21.1451 33.275V21.151H33.2658V33.275H21.1451ZM33.2658 27.2158V33.275H24.1758L22.6605 34.7903L24.1758 36.3057H36.2998V30.2398L33.2658 27.2158ZM33.2658 27.2158V33.275H24.1758L22.6605 34.7903L24.1758 36.3057H36.2998V30.2398L33.2658 27.2158ZM33.2658 27.2158V33.275H24.1758L22.6605 34.7903L24.1758 36.3057H36.2998V30.2398L33.2658 27.2158Z" fill="#197B8D"/>
<path id="Vector_3" d="M18.1133 75.7119V93.8962H36.2998V75.7119H18.1133ZM33.2658 90.8644H21.1451V78.7359H33.2658V90.8644Z" fill="#197B8D"/>
<path id="Vector_4" d="M30.2417 81.7705H24.1758V87.8331H30.2417" fill="#197B8D"/>
<path id="Vector_5" d="M62.0625 62.832V65.856H69.6393V62.832H62.0625Z" fill="#898284" fill-opacity="0.35"/>
<path id="Vector_6" d="M71.9141 62.832V65.856H81.0073V62.832H71.9141Z" fill="#898284" fill-opacity="0.35"/>
<path id="Vector_7" d="M59.0307 44.6406H56V54.1136H59.0307V44.6406Z" fill="#898284" fill-opacity="0.35"/>
<path id="Vector_8" d="M53.3509 53.7338V50.7031H47.668V53.7338H53.3509Z" fill="#898284" fill-opacity="0.35"/>
<path id="Vector_9" d="M33.2662 56.0078H30.2422V63.5857H33.2662V56.0078Z" fill="#898284" fill-opacity="0.35"/>
<path id="Vector_10" d="M64.7148 56.8052L69.4502 62.8319H70.8155L70.7763 56.7705L64.7148 56.8052Z" fill="#898284" fill-opacity="0.35"/>
<path id="Vector_11" d="M61.6836 57.9033L66.2308 62.8313H61.6836V57.9033Z" fill="#898284" fill-opacity="0.35"/>
<path id="Vector_12" d="M93.8907 39.3359V48.4292H90.8588V42.3678H87.8281V39.3359H93.8907Z" fill="#197B8D"/>
<path id="Vector_13" d="M41.6738 65.9039L41.5977 55.7499L44.6284 55.7275L44.6788 62.4968L47.7151 62.4733L47.7397 65.8579L41.6738 65.9039Z" fill="#898284" fill-opacity="0.35"/>
<path id="Vector_14" d="M93.8907 57.5234V66.6167H90.8588V60.5542H87.8281V57.5234H93.8907Z" fill="#197B8D"/>
<path id="Vector_15" d="M84.038 56.7656V65.8555H81.0073V59.7963H77.9766V56.7656H84.038Z" fill="#898284" fill-opacity="0.35"/>
<path id="Vector_16" d="M72.2924 47.6729H69.2617V65.8561H72.2924V47.6729Z" fill="#898284" fill-opacity="0.35"/>
<path id="Vector_17" d="M78.7372 75.7119H75.7031V78.7359H78.7372V75.7119Z" fill="#197B8D"/>
<path id="Vector_18" d="M57.518 78.7354V84.7979H42.3633V78.7354H45.394V81.7705H54.4873V78.7354H57.518Z" fill="#197B8D"/>
<path id="Vector_19" d="M81.7613 69.6475V72.6793H75.7032V75.7123H69.6406V72.6793H72.6725V69.6475H81.7613Z" fill="#197B8D"/>
<path id="Vector_20" d="M93.1318 50.7031V53.7338H87.0693V56.7657H81.0078V53.7338H84.0385V50.7031H93.1318Z" fill="#898284" fill-opacity="0.35"/>
<path id="Vector_21" d="M43.8789 47.6724V44.6406H49.9403V35.5484H52.9722V32.5166H56.0029V38.5792H62.0655V41.6099H52.9722V47.6724H43.8789Z" fill="#898284" fill-opacity="0.35"/>
<path id="Vector_22" d="M64.3025 18.1191V21.151H61.2718V24.1817H58.2422V18.1191H64.3025Z" fill="#197B8D"/>
<path id="Vector_23" d="M67.331 24.1816V30.2397H64.3003V27.2157H61.2695V24.1816H67.331Z" fill="#197B8D"/>
<path id="Vector_24" d="M87.0705 45.3598V48.395H71.9158V39.3017H68.8828V36.271H71.9135V33.2402H74.9443V45.3598H81.0068V36.271H84.0375V45.3598H87.0705Z" fill="#898284" fill-opacity="0.35"/>
<path id="Vector_25" d="M73.3946 18.1191V27.2158H67.332V24.1817H70.3639V21.151H67.332V18.1191H73.3946Z" fill="#197B8D"/>
<path id="Vector_26" d="M68.1245 47.6729H59.0312V41.6104H62.0631V44.6411H65.0938V41.6104H68.1245V47.6729Z" fill="#898284" fill-opacity="0.35"/>
<path id="Vector_27" d="M71.5357 66.6162H68.5039V69.6469H71.5357V66.6162Z" fill="#197B8D"/>
<path id="Vector_28" d="M66.2308 50.7031H61.6836V53.7338H66.2308V50.7031Z" fill="#898284" fill-opacity="0.35"/>
<path id="Vector_29" d="M77.9772 56.7656H74.9453V59.7963H77.9772V56.7656Z" fill="#898284" fill-opacity="0.35"/>
<path id="Vector_30" d="M77.9772 50.7031H74.9453V53.7338H77.9772V50.7031Z" fill="#898284" fill-opacity="0.35"/>
<path id="Vector_31" d="M72.2925 44.6406H68.125V47.6725H72.2925V44.6406Z" fill="#898284" fill-opacity="0.35"/>
<path id="Vector_32" d="M65.0932 83.2871H62.0625V86.3178H65.0932V83.2871Z" fill="#197B8D"/>
<path id="Vector_33" d="M66.192 31.7598H63.168V34.7905H66.192V31.7598Z" fill="#197B8D"/>
<path id="Vector_34" d="M53.351 62.832H50.3203V65.856H53.351V62.832Z" fill="#898284" fill-opacity="0.35"/>
<path id="Vector_35" d="M56.0034 44.6406H52.9727V47.6725H56.0034V44.6406Z" fill="#898284" fill-opacity="0.35"/>
<path id="Vector_36" d="M63.5782 90.8643H57.5156V93.8961H63.5782V90.8643Z" fill="#197B8D"/>
<path id="Vector_37" d="M36.6786 44.6406H30.6172V47.6725H36.6786V44.6406Z" fill="#898284" fill-opacity="0.35"/>
<path id="Vector_38" d="M24.1758 57.5234V60.5542H21.1451V66.6167H18.1133V57.5234H24.1758Z" fill="#197B8D"/>
<path id="Vector_39" d="M57.5186 84.8027V90.8642H54.4879V93.896H42.3639V90.8642H39.332V84.8027H42.3639V87.8335H45.3946V90.8642H51.4572V84.8027H57.5186Z" fill="#197B8D"/>
<path id="Vector_40" d="M27.2066 66.6162V75.7117H24.1758V69.6469H18.1133V66.6162H27.2066Z" fill="#197B8D"/>
<path id="Vector_41" d="M62.0659 62.8321V65.8561H52.9727V62.8321H56.0034V53.7344H59.0341V62.8321H62.0659Z" fill="#898284" fill-opacity="0.35"/>
<path id="Vector_42" d="M39.3315 59.7964H36.3008V50.7031H39.3315V53.7338H44.6358V56.7657H39.3315V59.7964Z" fill="#898284" fill-opacity="0.35"/>
<path id="Vector_43" d="M38.6406 44.894L38.6641 41.9473L47.7563 42.0201L47.7328 44.9668L44.7021 44.9421L44.6315 53.7823L41.603 53.7599L41.6736 44.9197L38.6406 44.894Z" fill="#898284" fill-opacity="0.35"/>
<path id="Vector_44" d="M75.7027 78.7359V87.8292H72.6719V90.8599H75.7027V93.8918H69.6401V84.803H72.6719V81.7711H69.6401V84.803H66.6094V75.7119H72.6719V78.7359H75.7027Z" fill="#197B8D"/>
<path id="Vector_45" d="M93.8908 75.7123V78.7363H78.7383V75.7123H81.7623V72.6793H84.7975V69.6475H87.8282V72.6793H90.8589V75.7123H93.8908Z" fill="#197B8D"/>
<path id="Vector_46" d="M90.8589 84.8027V90.8642H87.8282V93.896H78.7383V90.8642H84.7975V84.8027H90.8589Z" fill="#197B8D"/>
<path id="Vector_47" d="M29.8594 71.9219V65.856H32.8901V62.832H41.9823V65.856H35.9208V71.9186L29.8594 71.9219Z" fill="#898284" fill-opacity="0.35"/>
<path id="Vector_48" d="M53.3506 56.7656V62.8315H50.3198V65.8555H41.2266V62.8315H47.288V56.7656H53.3506Z" fill="#898284" fill-opacity="0.35"/>
<path id="Vector_49" d="M93.8912 84.8027H90.8594V87.8335H93.8912V84.8027Z" fill="#197B8D"/>
<path id="Vector_50" d="M93.8912 90.8643H90.8594V93.8961H93.8912V90.8643Z" fill="#197B8D"/>
<path id="Vector_51" d="M56.8974 21.1514H53.8633V30.2402H56.8974V21.1514Z" fill="#197B8D"/>
<path id="Vector_52" d="M33.266 47.6729H30.6172V50.7036H33.266V47.6729Z" fill="#898284" fill-opacity="0.35"/>
<path id="Vector_53" d="M45.3941 39.3359V42.1113H39.3315V44.89H42.3633V47.6687H36.3008V39.3359H45.3941Z" fill="#898284" fill-opacity="0.35"/>
<path id="Vector_54" d="M27.206 46.8438V52.9063H24.1753V55.937H21.1445V49.8756H24.1753V46.8438H27.206Z" fill="#197B8D"/>
<path id="Vector_55" d="M50.8321 21.151V27.2158H47.8014V24.1817H44.7695V18.1191H47.8014V21.151H50.8321Z" fill="#197B8D"/>
<path id="Vector_56" d="M80.8808 47.6729H88.9638V50.7036H84.9218V53.7343H76.8398V50.7036H80.8808V47.6729Z" fill="#898284" fill-opacity="0.35"/>
<path id="Vector_57" d="M33.2658 56.3866V50.3252H30.617V53.3559H27.9648V59.4185H30.617V56.3866H33.2658Z" fill="#898284" fill-opacity="0.35"/>
<path id="Vector_58" d="M53.8628 18.1191H50.832V21.151H53.8628V18.1191Z" fill="#197B8D"/>
<path id="Vector_59" d="M27.206 40.7822H21.1445V46.8437H27.206V40.7822Z" fill="#197B8D"/>
<path id="Vector_60" d="M54.4878 75.7117V78.7357H45.3945V75.7117H48.4253V66.6162H51.4571V75.7117H54.4878Z" fill="#197B8D"/>
<path id="Vector_61" d="M67.3673 69.6475V75.7123H64.3355V78.7363H55.2422V75.7123H61.3047V69.6475H67.3673Z" fill="#197B8D"/>
<path id="Vector_62" d="M41.6049 71.542H38.5742V77.6034H41.6049V71.542Z" fill="#197B8D"/>
<path id="Vector_63" d="M48.9409 27.5918V30.6225H42.8784V33.6532H45.9091V36.684H39.8477V27.5918H48.9409Z" fill="#197B8D"/>
<path id="Vector_64" d="M28.6095 31.334H25.7188V39.2837H28.6095V31.334Z" fill="#197B8D"/>
</g>
</g>
</g>
<path id="Vector_65" d="M85.8964 29.0896H93.5695V18.1035H76.3047V36.3931H80.7847V30.4493L88.4589 36.3931H93.8943L85.8964 29.0896ZM79.9693 20.5675H89.9821V26.6155H79.9693V20.5675Z" fill="#197B8D"/>
</g>
</svg>
