<svg width="200" height="200" viewBox="0 0 200 200" fill="none" xmlns="http://www.w3.org/2000/svg">
<rect x="59" y="84" width="88" height="28" fill="white"/>
<mask id="mask0_854_19751" style="mask-type:luminance" maskUnits="userSpaceOnUse" x="32" y="32" width="136" height="136">
<path d="M167.656 32.3564H32.3418V167.67H167.656V32.3564Z" fill="white"/>
</mask>
<g mask="url(#mask0_854_19751)">
<path d="M59.3998 48.6004V59.4204H43.1678L40.4618 62.1264L43.1678 64.8324H64.8178V54.0004L59.3998 48.6004ZM59.3998 48.6004V59.4204H43.1678L40.4618 62.1264L43.1678 64.8324H64.8178V54.0004L59.3998 48.6004ZM59.3998 48.6004V59.4204H43.1678L40.4618 62.1264L43.1678 64.8324H64.8178V54.0004L59.3998 48.6004ZM32.3418 32.3564V64.8324H64.8178V32.3564H32.3418ZM37.7558 59.4204V37.7704H59.3998V59.4204H37.7558ZM59.3998 48.6004V59.4204H43.1678L40.4618 62.1264L43.1678 64.8324H64.8178V54.0004L59.3998 48.6004ZM59.3998 48.6004V59.4204H43.1678L40.4618 62.1264L43.1678 64.8324H64.8178V54.0004L59.3998 48.6004ZM59.3998 48.6004V59.4204H43.1678L40.4618 62.1264L43.1678 64.8324H64.8178V54.0004L59.3998 48.6004Z" fill="#197B8D"/>
<path d="M32.3418 135.2V167.672H64.8178V135.2H32.3418ZM59.3998 162.258H37.7558V140.6H59.3998V162.258Z" fill="#197B8D"/>
<path d="M54 146.021H43.168V156.847H54" fill="#197B8D"/>
<path d="M110.826 112.2V117.6H124.356V112.2H110.826Z" fill="#898284" fill-opacity="0.35"/>
<path d="M128.416 112.2V117.6H144.654V112.2H128.416Z" fill="#898284" fill-opacity="0.35"/>
<path d="M105.412 79.7168H100V96.6328H105.412V79.7168Z" fill="#898284" fill-opacity="0.35"/>
<path d="M95.2632 95.954V90.542H85.1152V95.954H95.2632Z" fill="#898284" fill-opacity="0.35"/>
<path d="M59.4 100.015H54V113.547H59.4V100.015Z" fill="#898284" fill-opacity="0.35"/>
<path d="M115.562 101.438L124.019 112.2H126.457L126.386 101.376L115.562 101.438Z" fill="#898284" fill-opacity="0.35"/>
<path d="M110.148 103.4L118.268 112.2H110.148V103.4Z" fill="#898284" fill-opacity="0.35"/>
<path d="M167.658 70.2441V86.4821H162.244V75.6581H156.832V70.2441H167.658Z" fill="#197B8D"/>
<path d="M74.4114 117.687L74.2754 99.5546L79.6874 99.5146L79.7774 111.603L85.1994 111.561L85.2434 117.605L74.4114 117.687Z" fill="#898284" fill-opacity="0.35"/>
<path d="M167.658 102.721V118.959H162.244V108.133H156.832V102.721H167.658Z" fill="#197B8D"/>
<path d="M150.066 101.368V117.6H144.654V106.78H139.242V101.368H150.066Z" fill="#898284" fill-opacity="0.35"/>
<path d="M129.092 85.1309H123.68V117.601H129.092V85.1309Z" fill="#898284" fill-opacity="0.35"/>
<path d="M140.6 135.2H135.182V140.6H140.6V135.2Z" fill="#197B8D"/>
<path d="M102.707 140.601V151.427H75.6445V140.601H81.0565V146.021H97.2945V140.601H102.707Z" fill="#197B8D"/>
<path d="M145.999 124.37V129.784H135.181V135.2H124.355V129.784H129.769V124.37H145.999Z" fill="#197B8D"/>
<path d="M166.304 90.542V95.954H155.478V101.368H144.654V95.954H150.066V90.542H166.304Z" fill="#898284" fill-opacity="0.35"/>
<path d="M78.3496 85.1304V79.7164H89.1736V63.4804H94.5876V58.0664H99.9996V68.8924H110.826V74.3044H94.5876V85.1304H78.3496Z" fill="#898284" fill-opacity="0.35"/>
<path d="M114.822 32.3564V37.7704H109.41V43.1824H104V32.3564H114.822Z" fill="#197B8D"/>
<path d="M120.234 43.1826V54.0006H114.822V48.6006H109.41V43.1826H120.234Z" fill="#197B8D"/>
<path d="M155.478 81.0004V86.4204H128.416V70.1824H123V64.7704H128.412V59.3584H133.824V81.0004H144.65V64.7704H150.062V81.0004H155.478Z" fill="#898284" fill-opacity="0.35"/>
<path d="M131.06 32.3564V48.6004H120.234V43.1824H125.648V37.7704H120.234V32.3564H131.06Z" fill="#197B8D"/>
<path d="M121.65 85.1307H105.412V74.3047H110.826V79.7167H116.238V74.3047H121.65V85.1307Z" fill="#898284" fill-opacity="0.35"/>
<path d="M127.74 118.958H122.326V124.37H127.74V118.958Z" fill="#197B8D"/>
<path d="M118.268 90.542H110.148V95.954H118.268V90.542Z" fill="#898284" fill-opacity="0.35"/>
<path d="M139.242 101.368H133.828V106.78H139.242V101.368Z" fill="#898284" fill-opacity="0.35"/>
<path d="M139.242 90.542H133.828V95.954H139.242V90.542Z" fill="#898284" fill-opacity="0.35"/>
<path d="M129.092 79.7168H121.65V85.1308H129.092V79.7168Z" fill="#898284" fill-opacity="0.35"/>
<path d="M116.238 148.729H110.826V154.141H116.238V148.729Z" fill="#197B8D"/>
<path d="M118.199 56.7148H112.799V62.1268H118.199V56.7148Z" fill="#197B8D"/>
<path d="M95.2636 112.2H89.8516V117.6H95.2636V112.2Z" fill="#898284" fill-opacity="0.35"/>
<path d="M99.9999 79.7168H94.5879V85.1308H99.9999V79.7168Z" fill="#898284" fill-opacity="0.35"/>
<path d="M113.531 162.259H102.705V167.673H113.531V162.259Z" fill="#197B8D"/>
<path d="M65.4939 79.7168H54.6699V85.1308H65.4939V79.7168Z" fill="#898284" fill-opacity="0.35"/>
<path d="M43.1678 102.721V108.133H37.7558V118.959H32.3418V102.721H43.1678Z" fill="#197B8D"/>
<path d="M102.706 151.435V162.259H97.2945V167.673H75.6445V162.259H70.2305V151.435H75.6445V156.847H81.0565V162.259H91.8825V151.435H102.706Z" fill="#197B8D"/>
<path d="M48.5798 118.958V135.2H43.1678V124.37H32.3418V118.958H48.5798Z" fill="#197B8D"/>
<path d="M110.826 112.2V117.6H94.5879V112.2H99.9999V95.9541H105.412V112.2H110.826Z" fill="#898284" fill-opacity="0.35"/>
<path d="M70.2304 106.78H64.8184V90.542H70.2304V95.954H79.7024V101.368H70.2304V106.78Z" fill="#898284" fill-opacity="0.35"/>
<path d="M69 80.1682L69.042 74.9062L85.278 75.0362L85.236 80.2982L79.824 80.2542L79.698 96.0403L74.29 96.0002L74.416 80.2143L69 80.1682Z" fill="#898284" fill-opacity="0.35"/>
<path d="M135.181 140.6V156.838H129.769V162.25H135.181V167.664H124.355V151.434H129.769V146.02H124.355V151.434H118.943V135.2H129.769V140.6H135.181Z" fill="#197B8D"/>
<path d="M167.658 135.2V140.6H140.6V135.2H146V129.784H151.42V124.37H156.832V129.784H162.244V135.2H167.658Z" fill="#197B8D"/>
<path d="M162.244 151.435V162.259H156.832V167.673H140.6V162.259H151.42V151.435H162.244Z" fill="#197B8D"/>
<path d="M53.3184 128.432V117.6H58.7304V112.2H74.9664V117.6H64.1424V128.426L53.3184 128.432Z" fill="#898284" fill-opacity="0.35"/>
<path d="M95.2633 101.368V112.2H89.8513V117.6H73.6133V112.2H84.4373V101.368H95.2633Z" fill="#898284" fill-opacity="0.35"/>
<path d="M167.658 151.435H162.244V156.847H167.658V151.435Z" fill="#197B8D"/>
<path d="M167.658 162.259H162.244V167.673H167.658V162.259Z" fill="#197B8D"/>
<path d="M101.6 37.7705H96.1816V54.0005H101.6V37.7705Z" fill="#197B8D"/>
<path d="M59.3999 85.1309H54.6699V90.5429H59.3999V85.1309Z" fill="#898284" fill-opacity="0.35"/>
<path d="M81.0564 70.2441V75.2001H70.2304V80.1621H75.6444V85.1241H64.8184V70.2441H81.0564Z" fill="#898284" fill-opacity="0.35"/>
<path d="M48.5799 83.6504V94.4764H43.1679V99.8884H37.7559V89.0644H43.1679V83.6504H48.5799Z" fill="#197B8D"/>
<path d="M90.7694 37.7704V48.6004H85.3574V43.1824H79.9434V32.3564H85.3574V37.7704H90.7694Z" fill="#197B8D"/>
<path d="M144.427 85.1309H158.861V90.5429H151.643V95.9549H137.211V90.5429H144.427V85.1309Z" fill="#898284" fill-opacity="0.35"/>
<path d="M59.3996 100.69V89.8662H54.6696V95.2782H49.9336V106.104H54.6696V100.69H59.3996Z" fill="#898284" fill-opacity="0.35"/>
<path d="M96.1815 32.3564H90.7695V37.7704H96.1815V32.3564Z" fill="#197B8D"/>
<path d="M48.5799 72.8262H37.7559V83.6502H48.5799V72.8262Z" fill="#197B8D"/>
<path d="M97.2946 135.2V140.6H81.0566V135.2H86.4686V118.958H91.8826V135.2H97.2946Z" fill="#197B8D"/>
<path d="M120.298 124.37V135.2H114.884V140.6H98.6465V135.2H109.472V124.37H120.298Z" fill="#197B8D"/>
<path d="M74.289 127.755H68.877V138.579H74.289V127.755Z" fill="#197B8D"/>
<path d="M87.3884 49.2725V54.6845H76.5624V60.0965H81.9744V65.5085H71.1504V49.2725H87.3884Z" fill="#197B8D"/>
<path d="M51.0858 55.9541H45.9238V70.1501H51.0858V55.9541Z" fill="#197B8D"/>
</g>
<path d="M153.384 51.9461H167.086V32.3281H136.256V64.9881H144.256V54.3741L157.96 64.9881H167.666L153.384 51.9461ZM142.8 36.7281H160.68V47.5281H142.8V36.7281Z" fill="#197B8D"/>
</svg>
