<svg width="20" height="20" viewBox="0 0 20 20" fill="none" xmlns="http://www.w3.org/2000/svg">
<path d="M7.5 0H0V7.5H7.5V0ZM6.25 6.25H1.25V1.25H6.25V6.25Z" fill="#197B8D"/>
<path d="M2.5 2.5H5V5H2.5V2.5ZM0 20H7.5V12.5H0V20ZM1.25 13.75H6.25V18.75H1.25V13.75Z" fill="#197B8D"/>
<path d="M2.5 15H5V17.5H2.5V15ZM12.5 0V7.5H20V0H12.5ZM18.75 6.25H13.75V1.25H18.75V6.25Z" fill="#197B8D"/>
<path d="M15 2.5H17.5V5H15V2.5ZM2.5 8.75H0V11.25H3.75V10H2.5V8.75ZM8.75 11.25H11.25V13.75H8.75V11.25ZM3.75 8.75H6.25V10H3.75V8.75ZM11.25 15H8.75V16.25H10V17.5H11.25V16.25V15ZM7.5 8.75V10H6.25V11.25H8.75V8.75H7.5ZM10 5H11.25V7.5H10V5ZM11.25 10V11.25H13.75V8.75H10V10H11.25ZM8.75 7.5H10V8.75H8.75V7.5ZM11.25 17.5H13.75V20H11.25V17.5ZM8.75 17.5H10V20H8.75V17.5ZM11.25 13.75H12.5V15H11.25V13.75ZM11.25 3.75V1.25H10V0H8.75V5H10V3.75H11.25ZM15 17.5H16.25V20H15V17.5ZM15 15H17.5V16.25H15V15ZM13.75 16.25H15V17.5H13.75V16.25ZM12.5 15H13.75V16.25H12.5V15ZM17.5 12.5V13.75H18.75V15H20V12.5H18.75H17.5ZM18.75 16.25H17.5V20H20V17.5H18.75V16.25ZM12.5 12.5V13.75H16.25V11.25H13.75V12.5H12.5ZM15 8.75V10H17.5V11.25H20V8.75H17.5H15Z" fill="#197B8D"/>
</svg>
