<svg width="268" height="268" viewBox="0 0 268 268" fill="none" xmlns="http://www.w3.org/2000/svg">
<g filter="url(#filter0_d_757_3967)">
<rect x="4" width="260" height="260" fill="#016C7E"/>
</g>
<path d="M100.452 0H4V96.4516H100.452V0ZM84.3763 80.3763H20.0753V16.0753H84.3763V80.3763Z" fill="#DADADA"/>
<path d="M36.1505 33.5488H68.3011V65.8991H36.1505V33.5488ZM4 260H100.452V162.95H4V260ZM20.0753 179.125H84.3763V243.825H20.0753V179.125Z" fill="#DADADA"/>
<path d="M37.5469 194.101H69.8971V226.452H37.5469V194.101ZM166.948 0V97.0507H263.998V0H166.948ZM247.823 80.8756H183.123V16.1751H247.823V80.8756Z" fill="#DADADA"/>
<path d="M199 32.5H231.5V65H199V32.5ZM36.5 113.75H4V146.25H52.75V130H36.5V113.75ZM117.75 146.25H150.25V178.75H117.75V146.25ZM52.75 113.75H85.25V130H52.75V113.75ZM150.25 195H117.75V211.25H134V227.5H150.25V211.25V195ZM101.5 113.75V130H85.25V146.25H117.75V113.75H101.5ZM134 65H150.25V97.5H134V65ZM150.25 130V146.25H182.75V113.75H134V130H150.25ZM117.75 97.5H134V113.75H117.75V97.5ZM150.25 227.5H182.75V260H150.25V227.5ZM117.75 227.5H134V260H117.75V227.5ZM150.25 178.75H166.5V195H150.25V178.75ZM150.25 48.75V16.25H134V0H117.75V65H134V48.75H150.25ZM199 227.5H215.25V260H199V227.5ZM199 195H231.5V211.25H199V195ZM182.75 211.25H199V227.5H182.75V211.25ZM166.5 195H182.75V211.25H166.5V195ZM231.5 162.5V178.75H247.75V195H264V162.5H247.75H231.5ZM247.75 211.25H231.5V260H264V227.5H247.75V211.25ZM166.5 162.5V178.75H215.25V146.25H182.75V162.5H166.5ZM199 113.75V130H231.5V146.25H264V113.75H231.5H199Z" fill="#DADADA"/>
<defs>
<filter id="filter0_d_757_3967" x="0" y="0" width="268" height="268" filterUnits="userSpaceOnUse" color-interpolation-filters="sRGB">
<feFlood flood-opacity="0" result="BackgroundImageFix"/>
<feColorMatrix in="SourceAlpha" type="matrix" values="0 0 0 0 0 0 0 0 0 0 0 0 0 0 0 0 0 0 127 0" result="hardAlpha"/>
<feOffset dy="4"/>
<feGaussianBlur stdDeviation="2"/>
<feComposite in2="hardAlpha" operator="out"/>
<feColorMatrix type="matrix" values="0 0 0 0 0 0 0 0 0 0 0 0 0 0 0 0 0 0 0.25 0"/>
<feBlend mode="normal" in2="BackgroundImageFix" result="effect1_dropShadow_757_3967"/>
<feBlend mode="normal" in="SourceGraphic" in2="effect1_dropShadow_757_3967" result="shape"/>
</filter>
</defs>
</svg>
